<svg width="789" height="101" viewBox="0 0 789 101" fill="none" xmlns="http://www.w3.org/2000/svg">
<path d="M26.3554 17.8532H80V0H26.3554C11.7765 0 0 12.1421 0 26.9973V73.0027C0 87.8579 11.7765 100 26.3554 100H80V82.1389H26.3554C21.4491 82.1389 17.3891 78.0019 17.3891 73.0027V54.1449V36.2838V26.9973C17.3891 21.9981 21.4491 17.8532 26.3554 17.8532Z" fill="black"/>
<path d="M119.597 17.8532H155.674V0H119.597C105.438 0 94 12.1421 94 26.9973V73.0027C94 87.8579 105.438 100 119.597 100H155.674V82.1389H119.597C114.832 82.1389 110.889 78.0019 110.889 73.0027V54.1449V36.2838V26.9973C110.889 21.9981 114.832 17.8532 119.597 17.8532Z" fill="black"/>
<path d="M161.38 17.8532H117.495V0H161.38C175.552 0 187 12.1421 187 26.9973V73.0027C187 87.8579 175.552 100 161.38 100H117.495V82.1389H161.38C166.149 82.1389 170.096 78.0019 170.096 73.0027V54.1449V36.2838V26.9973C170.096 21.9981 166.149 17.8532 161.38 17.8532Z" fill="black"/>
<path d="M320.004 15.7209V64.3023L257.004 15.7209L239.5 2.27906V24.9302L257.004 37.9767L320.004 86.5581L337.5 100V1.99999L320.004 15.7209Z" fill="url(#paint0_linear_119_21)"/>
<path d="M282.133 62.2004L218.641 13.4802L201 0V98L218.641 84.5198V35.7996L282.133 84.5198L299.766 98L300 74.9576L282.133 62.2004Z" fill="url(#paint1_linear_119_21)"/>
<path d="M377.855 17.8532H439V0H377.855C363.276 0 351.5 12.1421 351.5 26.9973V73.0027C351.5 87.8579 363.276 100 377.855 100H439V82.1389H377.855C372.949 82.1389 368.889 78.0019 368.889 73.0027V54.1449V36.2838V26.9973C368.889 21.9981 372.949 17.8532 377.855 17.8532Z" fill="black"/>
<path d="M367.5 55.5556V42.4243H407.5V55.5556H367.5Z" fill="black" stroke="black"/>
<path d="M479.355 17.8532H533V0H479.355C464.776 0 453 12.1421 453 26.9973V73.0027C453 87.8579 464.776 100 479.355 100H533V82.1389H479.355C474.449 82.1389 470.389 78.0019 470.389 73.0027V54.1449V36.2838V26.9973C470.389 21.9981 474.449 17.8532 479.355 17.8532Z" fill="black"/>
<path d="M547 0V17.8532H587.646V100H605.354V17.8532H646V0H547Z" fill="black"/>
<path d="M699 36.9223L715.037 45.6905V90.3204L699 101V36.9223Z" fill="black"/>
<path d="M789 86.4369V101L772.963 92.217L718.091 62.165V47.6019L772.963 77.5705V71.2168L699 30.1262V18.4757V15.5631V1L733.773 20.1306L768.545 39.2612V53.8243L715.037 24.444V29.3269L789 70.4175V83.0388V86.4369Z" fill="black"/>
<path d="M772.963 55.824L789 64.5922V1L772.963 9.73786V55.824Z" fill="black"/>
<path d="M789 86.4369V101L772.963 92.217L718.091 62.165V47.6019L772.963 77.5705V74.1294L699 33.0388V18.4757V15.5631V1L733.773 20.1306L768.545 39.2612V53.8243L715.037 24.444V28.356L789 69.4466V83.0388V86.4369Z" fill="url(#paint2_linear_119_21)"/>
<defs>
<linearGradient id="paint0_linear_119_21" x1="201" y1="36" x2="350" y2="92" gradientUnits="userSpaceOnUse">
<stop stop-color="#4EB2BD"/>
<stop offset="0.947445" stop-color="#112628"/>
</linearGradient>
<linearGradient id="paint1_linear_119_21" x1="201" y1="36" x2="350" y2="92" gradientUnits="userSpaceOnUse">
<stop stop-color="#4EB2BD"/>
<stop offset="0.947445" stop-color="#112628"/>
</linearGradient>
<linearGradient id="paint2_linear_119_21" x1="705.5" y1="1" x2="799" y2="108.5" gradientUnits="userSpaceOnUse">
<stop offset="0.217708" stop-color="#4EB2BD"/>
<stop offset="1" stop-color="#062D31"/>
</linearGradient>
</defs>
</svg>
